<svg width="303" height="303" viewBox="0 0 303 303" fill="none" xmlns="http://www.w3.org/2000/svg">
<rect width="303" height="303" rx="65" fill="white"/>
<path d="M166.991 195.973C158.399 200.747 150.539 206.217 144.029 214C142.655 210.125 140.947 206.374 138.924 202.789C132.79 192.348 124.869 183.403 116.127 174.999C111.663 170.706 106.875 169.113 100.968 169.286C96.6085 169.412 93.0276 170.925 90.2629 174.219C89.1281 175.65 88.0668 177.138 87.083 178.675C86.1394 180.077 85.3185 181.59 84.2852 182.926C80.7892 187.439 74.4342 186.999 71.4336 182.085C69.6926 179.236 72.3771 174.321 75.8826 174.289C79.4421 174.289 82.9436 173.396 86.0592 171.691C87.2367 171.107 88.2492 170.243 89.006 169.175C89.7628 168.108 90.24 166.872 90.395 165.577C90.9796 161.565 90.4781 157.472 88.9419 153.716C87.5972 150.259 85.1298 148.288 81.2893 147.886C76.0996 147.34 71.0703 148.353 66.0834 149.456C61.7287 150.39 57.4731 151.791 53.1657 152.955C51.6465 153.366 50.1226 153.744 48.5845 154.076C46.018 154.636 43.5175 154.613 41.8567 152.207C40.5074 150.245 40.8377 145.733 42.2483 144.042C44.1355 141.748 47.4994 140.482 50.0188 141.608C55.9021 144.233 61.9835 144.289 68.1923 143.523C71.3531 143.2 74.3397 141.933 76.7554 139.889C78.4539 138.422 79.7796 136.712 80.1382 134.115C78.1236 133.853 76.2647 133.839 74.8541 132.475C73.1933 130.878 72.8867 129.635 73.9105 127.65C74.1612 127.192 74.4483 126.754 74.7691 126.342C77.7273 122.273 80.1099 122.348 82.7189 126.692C84.6061 129.817 86.965 132.256 90.6828 133.321C91.5509 132.013 91.5933 130.565 91.8906 129.196C93.7777 120.386 97.2218 112.314 103.577 105.685C118.203 90.4469 141.24 91.6708 154.182 108.31C156.974 111.942 159.149 116 160.622 120.325C161.117 121.726 161.131 123.413 162.471 124.655C164.325 122.595 166.061 120.479 167.991 118.55C174.068 112.477 181.164 108.142 189.812 106.871C206.159 104.503 220.275 113.589 225.116 129.579C227.871 138.683 227.404 147.858 224.932 156.949C224.276 159.354 223.658 161.732 223.62 164.222C223.559 168.398 224.885 170.089 228.999 171.159C230.268 171.486 231.613 171.593 232.816 172.07C238.076 174.158 241.501 182.394 239.345 187.583C238.1 190.568 237.269 190.807 234.934 188.644C233.108 186.962 231.471 185.075 229.636 183.407C227.145 181.151 226.14 181.445 224.946 184.654C224.583 185.626 224.389 186.658 224.045 187.639C223.347 189.634 221.889 190.498 219.799 190.316C217.426 190.072 215.176 189.152 213.321 187.667C211.231 186.098 209.202 184.44 207.075 182.917C204.947 181.394 202.564 180.894 200.04 182.109C195.19 184.444 190.085 186.159 185.061 188.079C182.282 189.134 181.989 189.615 182.82 192.386C183.311 193.728 183.879 195.041 184.523 196.319C186.009 199.72 184.995 202.135 181.484 203.438C176.191 205.409 172.014 204.008 168.954 199.234C168.326 198.286 167.76 197.267 166.991 195.973Z" fill="#E93737" stroke="#E93737" stroke-width="3" stroke-miterlimit="10"/>
<path d="M246.606 201C247.011 201.074 247.41 201.172 247.801 201.294C252.741 203.159 257 205.957 260.855 209.343C262.255 210.56 262.31 212.164 261.355 213.615C260.027 215.756 258.032 217.471 255.635 218.53C253.455 219.463 251.701 219.034 250.771 217.01C248.771 212.631 246.966 208.149 245.241 203.667C244.861 202.674 244.691 201.242 246.606 201Z" fill="#E93737" stroke="#FF4A4A" stroke-width="3" stroke-miterlimit="10"/>
<path d="M249 161.107C252.768 159.504 256.891 158.798 261.011 159.05C262.778 159.138 263.308 160.136 262.836 161.699C262.087 164.195 260.052 165.397 257.347 164.883C254.48 164.361 251.604 163.788 249 161.107Z" fill="#E93737" stroke="#FF4A4A" stroke-width="3" stroke-miterlimit="10"/>
<path d="M111 88.4787C110.919 89.3145 111.047 90.3852 110.05 90.8481C109.052 91.3109 108.245 90.6408 107.702 89.8533C105.843 87.1316 104.75 84.1474 105.049 80.7694C105.117 80.0441 105.239 79.2013 106.169 79.0148C106.536 78.9684 106.909 79.0318 107.241 79.1974C107.574 79.363 107.852 79.6236 108.041 79.9474C109.893 82.399 110.929 85.3871 111 88.4787Z" fill="#E93737" stroke="#FF4A4A" stroke-width="3" stroke-miterlimit="10"/>
<path d="M85 193.575C84.3304 194.933 82.3214 195.078 80.3482 194.973C78.6429 194.873 76.5893 194.472 77.0715 193.23C77.5 192.133 79.5 191.957 81.3036 192.008C83.1072 192.058 84.7679 192.263 85 193.575Z" fill="#E93737" stroke="#FF4A4A" stroke-width="3" stroke-miterlimit="10"/>
<path d="M220.432 199C219.797 198.905 218.946 198.941 219.003 197.581C219.056 196.453 219.793 196.051 220.505 196.003C221.218 195.956 221.996 196.394 222 197.516C222.004 198.639 221.149 198.852 220.432 199Z" fill="#E93737" stroke="#FF4A4A" stroke-width="1.8" stroke-miterlimit="10"/>
</svg>
